<svg id="Ebene_1" data-name="Ebene 1" xmlns="http://www.w3.org/2000/svg" viewBox="0 0 284.31 102.33"><title>_</title><path d="M56.66,56.12c0-4.4,6.59-12.59,18.48-17.79-6.89,12.79-14,19.28-17,19.28a1.37,1.37,0,0,1-1.5-1.49M273.14,39.83c0,2.9-3.89,7.19-11.38,8.29,3-5.09,7.69-10,10-10a1.51,1.51,0,0,1,1.39,1.7M98.82,55.52c0-3.9,5.19-12,16.08-17.39-7.39,15.59-11.49,19.18-14.38,19.18-1.2,0-1.7-.7-1.7-1.79M236.88,37.93c.8,0,1.2.5,1.2,1.4,0,3.4-5.1,7.49-11.59,8.39,3.2-4.89,7.79-9.79,10.39-9.79m-69-.4c-3.6,0-7,4.2-7,8.6a7,7,0,0,0,6.79,6.79c3.6,0,7-4.1,7-8.59a7,7,0,0,0-6.79-6.8M258,68.6c6.39,0,18.18-3.89,24.08-9.29,1.39-1.3,1.79-2.1,1.89-3.39a8.62,8.62,0,0,0-.9-3.5c-.4-.8-1-.8-1.79-.3-7.9,4.89-13.69,7.19-18.59,7.19-2.79,0-3.69-1.5-3.69-3.39a10.45,10.45,0,0,1,.6-3.2,19.27,19.27,0,0,0,2.4.1c12.38,0,21-5.8,21-14.09,0-5-4.69-9.19-10.19-9.19-8.69,0-20.67,10.89-24.77,21.18-6.89,4.7-16.88,8.09-20.88,8.09-2.5,0-4.1-1.2-4.1-3a7.82,7.82,0,0,1,.6-2.7c14-.3,25.58-7.29,25.58-14.09,0-4.89-5-9.49-10.39-9.49-9.89,0-28.77,16.68-28.77,28.07,0,6.3,5.69,11.49,12.39,11.49,6.09,0,16.88-4.89,24.17-11,.5,6.4,4.9,10.49,11.39,10.49M152.17,28.94c-1.7,0-3.2,1-5.4,2.7-3.3,2.6-11.29,10.39-17,16.38-7.89,8.39-10.59,9.79-12,9.79a.63.63,0,0,1-.7-.7c0-1.59,3.6-7.19,6.19-12.78a8.4,8.4,0,0,0,.8-3,2.62,2.62,0,0,0-.9-1.9,31.75,31.75,0,0,0-3.89-3.29l2.4-.8c1.19-.4,1.49-.9.9-2.1-1.7-3.1-3.4-4.3-5.8-4.3-10.69,0-25,11.89-30,20.88-3.2,5.8-8,7.89-9.49,7.89a.63.63,0,0,1-.7-.7c0-1.79,5-8.39,6.19-11.58a7.94,7.94,0,0,0,.7-3c0-1.5-1.89-3.5-4.49-5.6l2.7-.79c1.49-.4,1.69-1,1.09-2q-2.68-4.5-6.89-4.5c-13.58,0-33.86,17.68-33.86,28,0,5.9,5.09,11.09,10.68,11.09,4.4,0,8.7-3.09,13.49-9.69a5.28,5.28,0,0,0-.1,1.3,7.29,7.29,0,0,0,7.29,7.39c3.2,0,7.4-3.19,10.89-8.19.5,5.1,4.4,9.19,8.89,9.19,4.9,0,8.2-2.3,12.19-8.49.1,4.5,3.5,8.49,8,8.49,6.2,0,12.79-5.09,25.88-20,1.9-2.2,3.59-4.09,5.19-5.79-.4,2.4-.7,5.29-1.1,9.49S142.08,59,140.08,59c-.9,0-1.9-.6-3.6-1.9-1.1-.8-1.8-.8-2.5.3a9.4,9.4,0,0,0-1.79,5c0,3.2,5.39,6.19,11.18,6.19,7.6,0,12.69-5.59,12.69-14,0-7-.4-10.59-.4-14.69a15.21,15.21,0,0,1,1.8-7.09,1.35,1.35,0,0,0-.4-2,8.72,8.72,0,0,0-4.89-1.9m37.66-3.69,11.29-.6c-3.7,4.09-7.3,8.09-10.79,12.18-3.6.2-6.2.4-9.09.7-1.4.1-1.7.9-1.4,2a16,16,0,0,0,3,6.4,139.44,139.44,0,0,0-9.19,13.38,6,6,0,0,0-1,3.1c0,2.1.8,4.89,5.6,8.19,1,.7,1.8.7,2.5-.3C186.53,62,192,54.42,197.82,46.42c4.8-.29,9.49-.69,13.69-1.19,1.39-.1,1.79-.6,1.49-2a31,31,0,0,0-1.09-4.6c-.6-1.9-1.7-2.59-3.8-2.59h-2.7c2.7-3.7,5.5-7.6,8.59-11.69,12.89-.3,28.57-.4,44.86-.4,1.4,0,1.8-.4,1.6-1.8-.7-4.1-2-7.29-3.6-9.29-1.1-1.5-2.9-2.1-5.59-2.3-3-.2-5.1-.3-8.89-.3a443.57,443.57,0,0,0-57.75,4.5c-1.4.2-1.8.9-1.5,2a20.39,20.39,0,0,0,3.4,7.1,3.19,3.19,0,0,0,3.3,1.4M65.65,15.86c2,0,3.1,1,3.9,5.69.2,1.4.9,1.7,2.1,1.4,3.89-1,6.39-2.2,7.39-3.1,1.2-1,1.7-2.1,1.4-4.29C79.14,6.26,74,.47,64.05.47c-11,0-21,10.29-35.06,35.47C17.7,56.22,15.2,58.21,12.8,58.21c-1.49,0-2.29-1.5-3.09-6.39-.2-1.1-1-1.6-2.4-1.1a15.83,15.83,0,0,0-6,3.7,4.35,4.35,0,0,0-.8,3.39c1.3,8,5.79,12.29,12.78,12.29,9.29,0,13.79-4.79,25.48-23.88C51.27,25.85,60.56,15.86,65.65,15.86" fill="#de1925"/><path d="M109.35,85.83A6.6,6.6,0,0,0,104,83.28c-2.55,0-4.34,1.3-4.34,3.2s1.22,2.58,3.71,3.15l2.68.59c3.62.8,6,2,6,5.52s-2.94,6.12-7.74,6.12c-4.46,0-7.13-2.26-8.35-4.39l2.26-1.55a6.66,6.66,0,0,0,6.17,3.62c3.15,0,4.87-1.45,4.87-3.56,0-1.93-1.45-2.7-4-3.26l-2.61-.57c-3.14-.68-5.76-1.87-5.76-5.52,0-3.35,3.06-5.67,7.19-5.67a9.07,9.07,0,0,1,7.27,3.18Z" fill="#de1925"/><path d="M114.51,91.86c0-3.06,2.2-4.75,5.67-4.75,2.85,0,5.43.83,5.49,4.21,0,.77,0,1.6,0,2.41v4.72c0,1.12.3,1.51,1,1.51a3.43,3.43,0,0,0,.56-.06v1.63a5.35,5.35,0,0,1-1.51.18c-1.31,0-2.19-.5-2.26-1.9a5.61,5.61,0,0,1-4.65,2c-2.83,0-4.93-1.43-4.93-4.16,0-2.91,2.46-3.83,5.61-4.33l1.81-.3c1.33-.21,2-.44,2-1.51,0-1.49-.72-2.5-3.18-2.5s-3.35,1.22-3.35,3Zm7.9,7.09a3.49,3.49,0,0,0,1-2.73v-2c-.11.09-.23.27-1.15.45l-2.64.53c-2,.42-3,1.07-3,2.43,0,1.67,1.3,2.38,3,2.38A3.94,3.94,0,0,0,122.41,99Z" fill="#de1925"/><path d="M129.55,91.86c0-3.06,2.2-4.75,5.68-4.75,2.84,0,5.43.83,5.49,4.21,0,.77,0,1.6,0,2.41v4.72c0,1.12.29,1.51,1,1.51a3.68,3.68,0,0,0,.56-.06v1.63a5.4,5.4,0,0,1-1.51.18c-1.31,0-2.2-.5-2.26-1.9a5.64,5.64,0,0,1-4.66,2c-2.82,0-4.93-1.43-4.93-4.16,0-2.91,2.47-3.83,5.61-4.33l1.81-.3c1.34-.21,2-.44,2-1.51,0-1.49-.71-2.5-3.17-2.5s-3.36,1.22-3.36,3Zm7.9,7.09a3.49,3.49,0,0,0,1-2.73v-2c-.12.09-.24.27-1.16.45l-2.64.53c-2,.42-3,1.07-3,2.43,0,1.67,1.31,2.38,3,2.38A3.93,3.93,0,0,0,137.45,99Z" fill="#de1925"/><path d="M153.59,90.85a4.86,4.86,0,0,0-3.86-1.75c-1.54,0-2.81.68-2.81,1.92s1,1.67,2.9,2.08l1.78.45c2.26.56,4.16,1.27,4.16,3.83,0,2.91-2.67,4.48-5.73,4.48A7.33,7.33,0,0,1,143.85,99l1.82-1.45a5.15,5.15,0,0,0,4.45,2.28c2,0,3.15-.86,3.15-2.17s-1.07-1.54-2.62-1.9l-2-.47c-2.5-.56-4.16-1.54-4.16-4,0-2.79,2.61-4.21,5.31-4.21a7.2,7.2,0,0,1,5.49,2.16Z" fill="#de1925"/><path d="M165.46,101.53a8.13,8.13,0,0,1-2.49.33c-2.2,0-3.33-.83-3.33-3V89.24H156.7V87.37h2.94v-5.1l2.47-.57v5.67h3.35v1.87h-3.35v8.67c0,1.46.35,1.87,1.6,1.87a5.85,5.85,0,0,0,1.75-.3Z" fill="#de1925"/><path d="M167.69,91.86c0-3.06,2.19-4.75,5.66-4.75,2.85,0,5.44.83,5.5,4.21,0,.77,0,1.6,0,2.41v4.72c0,1.12.3,1.51,1,1.51a3.68,3.68,0,0,0,.57-.06v1.63a5.43,5.43,0,0,1-1.52.18c-1.3,0-2.19-.5-2.25-1.9a5.65,5.65,0,0,1-4.66,2c-2.82,0-4.93-1.43-4.93-4.16,0-2.91,2.46-3.83,5.61-4.33l1.81-.3c1.34-.21,2-.44,2-1.51,0-1.49-.71-2.5-3.18-2.5S170,90.28,170,92ZM175.58,99a3.45,3.45,0,0,0,1-2.73v-2c-.12.09-.24.27-1.16.45l-2.64.53c-2,.42-3,1.07-3,2.43,0,1.67,1.31,2.38,3,2.38A3.93,3.93,0,0,0,175.58,99Z" fill="#de1925"/><path d="M185.46,101.5H183V81.32h2.46Z" fill="#de1925"/></svg>